<?xml version="1.0" encoding="utf-8"?>
<!-- Generator: Adobe Illustrator 16.0.0, SVG Export Plug-In . SVG Version: 6.00 Build 0)  -->
<!DOCTYPE svg PUBLIC "-//W3C//DTD SVG 1.1//EN" "http://www.w3.org/Graphics/SVG/1.1/DTD/svg11.dtd">
<svg version="1.1" id="Layer_1" xmlns="http://www.w3.org/2000/svg" xmlns:xlink="http://www.w3.org/1999/xlink" x="0px" y="0px"
	 width="841.89px" height="595.28px" viewBox="0 0 841.89 595.28" enable-background="new 0 0 841.89 595.28" xml:space="preserve">
<g>
	<g>
		<path d="M338.252,322.143l-18.517-70.673h-12.121l0,0c-4.439,0-8.049,3.56-8.128,7.984v42.75
			c-0.017,2.206-1.811,3.985-4.021,3.985c-1.382,0-2.606-0.702-3.333-1.771l-30.672-45.161c-3.204-4.696-8.601-7.787-14.715-7.787
			h-29.341l0,0l25.082,95.764l13.684-3.584v-22.2c0.079-2.149,1.85-3.869,4.016-3.869c1.371,0,2.578,0.688,3.306,1.737
			l12.927,19.027L338.252,322.143z"/>
		<polygon points="338.252,311.082 338.252,258.312 324.428,258.312 		"/>
		<polygon points="285.832,338.773 308.607,372.311 338.252,372.311 338.252,325.039 		"/>
		<polygon points="240.489,350.651 217.404,262.531 217.404,372.311 249.328,372.311 249.328,348.336 		"/>
		<polygon points="315.172,222.97 216.699,248.76 217.404,251.47 217.404,251.47 313.17,226.388 319.735,251.47 322.635,251.47 		
			"/>
	</g>
	<g>
		<path d="M382.083,284.678h9.307l22.008,28.24v-28.24h9.956v45.863h-8.579l-22.73-29.157v29.157h-9.961V284.678z"/>
		<path d="M438.678,284.678h32.01v8.977h-21.98v9.303h21.98v8.977h-21.98v9.634h21.98v8.974h-32.01V284.678z"/>
		<path d="M547.275,293.98h-13.953v-9.303h36.695v9.303h-12.65v36.561h-10.092V293.98z"/>
		<path d="M576.436,307.74v-0.13c0-13.043,10.295-23.723,24.445-23.723c14.152,0,24.311,10.553,24.311,23.591v0.132
			c0,13.041-10.293,23.721-24.439,23.721C586.594,331.331,576.436,320.783,576.436,307.74z M614.645,307.74v-0.13
			c0-7.862-5.771-14.41-13.893-14.41c-8.129,0-13.762,6.415-13.762,14.278v0.132c0,7.863,5.764,14.417,13.891,14.417
			C609.004,322.027,614.645,315.604,614.645,307.74z"/>
		<path d="M520.717,316.948c-3.469,3.103-6.639,5.079-11.727,5.079c-7.857,0-13.301-6.554-13.301-14.417v-0.132
			c0-7.863,5.572-14.278,13.301-14.278c4.586,0,8.195,1.96,11.727,5.172v-12.067c-3.098-1.518-6.842-2.417-11.66-2.417
			c-14.082,0-23.914,10.68-23.914,23.723v0.13c0,13.173,10.023,23.591,23.525,23.591c4.975,0,8.811-0.995,12.049-2.767V316.948z"/>
		<g>
			<path d="M381.31,368.619l2.438-2.908c2.216,1.918,4.422,3.004,7.298,3.004c2.499,0,4.09-1.153,4.09-2.902v-0.067
				c0-1.646-0.926-2.541-5.212-3.528c-4.924-1.187-7.693-2.64-7.693-6.897v-0.065c0-3.959,3.3-6.7,7.885-6.7
				c3.367,0,6.041,1.026,8.382,2.907l-2.177,3.065c-2.082-1.554-4.157-2.377-6.267-2.377c-2.381,0-3.763,1.224-3.763,2.741v0.064
				c0,1.779,1.055,2.575,5.477,3.633c4.885,1.188,7.423,2.936,7.423,6.766v0.059c0,4.329-3.4,6.898-8.246,6.898
				C387.414,372.311,384.08,371.092,381.31,368.619z"/>
			<path d="M414.436,362.874l-9.171-13.99h4.783l6.463,10.229l6.538-10.229h4.648l-9.172,13.895v9.205h-4.089V362.874z"/>
			<path d="M433.156,368.619l2.441-2.908c2.211,1.918,4.422,3.004,7.293,3.004c2.506,0,4.09-1.153,4.09-2.902v-0.067
				c0-1.646-0.926-2.541-5.211-3.528c-4.92-1.187-7.688-2.64-7.688-6.897v-0.065c0-3.959,3.299-6.7,7.885-6.7
				c3.367,0,6.035,1.026,8.381,2.907l-2.178,3.065c-2.08-1.554-4.156-2.377-6.271-2.377c-2.369,0-3.762,1.224-3.762,2.741v0.064
				c0,1.779,1.055,2.575,5.482,3.633c4.879,1.188,7.422,2.936,7.422,6.766v0.059c0,4.329-3.395,6.898-8.252,6.898
				C439.26,372.311,435.926,371.092,433.156,368.619z"/>
			<path d="M466.395,352.648h-7.32v-3.765h18.736v3.765h-7.326v19.335h-4.09V352.648z"/>
			<path d="M487.061,348.884h17.117v3.629h-13.062v6.007h11.58v3.633h-11.58v6.204h13.232v3.627h-17.287V348.884z"/>
			<path d="M513.434,348.884h4.32l7.029,10.925l7.027-10.925h4.326v23.1h-4.061v-16.562l-7.293,10.886h-0.131l-7.225-10.824v16.501
				h-3.994V348.884z"/>
			<path d="M544.146,368.619l2.447-2.908c2.205,1.918,4.416,3.004,7.287,3.004c2.51,0,4.096-1.153,4.096-2.902v-0.067
				c0-1.646-0.926-2.541-5.213-3.528c-4.924-1.187-7.693-2.64-7.693-6.897v-0.065c0-3.959,3.305-6.7,7.885-6.7
				c3.367,0,6.041,1.026,8.383,2.907l-2.172,3.065c-2.088-1.554-4.162-2.377-6.271-2.377c-2.375,0-3.764,1.224-3.764,2.741v0.064
				c0,1.779,1.055,2.575,5.479,3.633c4.883,1.188,7.422,2.936,7.422,6.766v0.059c0,4.329-3.4,6.898-8.246,6.898
				C550.254,372.311,546.92,371.092,544.146,368.619z"/>
		</g>
	</g>
</g>
</svg>
