<?xml version="1.0" encoding="utf-8"?>
<!-- Generator: Adobe Illustrator 16.0.0, SVG Export Plug-In . SVG Version: 6.00 Build 0)  -->
<!DOCTYPE svg PUBLIC "-//W3C//DTD SVG 1.1//EN" "http://www.w3.org/Graphics/SVG/1.1/DTD/svg11.dtd">
<svg version="1.1" id="Layer_1" xmlns="http://www.w3.org/2000/svg" xmlns:xlink="http://www.w3.org/1999/xlink" x="0px" y="0px"
	 width="841.89px" height="595.28px" viewBox="0 0 841.89 595.28" enable-background="new 0 0 841.89 595.28" xml:space="preserve">
<g>
	<polygon fill="#BFE3D3" points="338.25,320.566 241.928,345.802 216.699,249.478 313.024,224.248 	"/>
	<path fill="#1E398D" d="M338.25,256.358v64.208l-16.815-64.208H338.25z M241.928,345.802l-25.229-96.324v121.555h32.108v-27.033
		L241.928,345.802z M308.438,371.032h29.812v-50.466l-54.405,14.254L308.438,371.032z"/>
	<path fill="#6CA044" d="M338.25,320.566l-18.618-71.089h-12.189l0,0c-4.469,0-8.099,3.581-8.18,8.031v43.001
		c-0.02,2.218-1.822,4.011-4.043,4.011c-1.397,0-2.629-0.709-3.358-1.787l-30.856-45.424c-3.221-4.728-8.645-7.832-14.798-7.832
		h-29.508l0,0l25.229,96.324l13.758-3.605v-22.327c0.08-2.163,1.859-3.891,4.043-3.891c1.377,0,2.596,0.69,3.325,1.744l13,19.139
		L338.25,320.566z"/>
	<g>
		<path fill="#1E398D" d="M382.085,283.395h9.306l22.013,28.241v-28.241h9.954v45.865h-8.581l-22.734-29.157v29.157h-9.957V283.395z
			"/>
		<path fill="#1E398D" d="M438.682,283.395h32.008v8.977h-21.98v9.304h21.98v8.977h-21.98v9.632h21.98v8.977h-32.008V283.395z"/>
		<path fill="#1E398D" d="M547.281,292.699h-13.955v-9.305h36.693v9.305h-12.646v36.561h-10.092V292.699z"/>
		<path fill="#1E398D" d="M576.445,306.459v-0.132c0-13.038,10.285-23.721,24.439-23.721c14.15,0,24.307,10.551,24.307,23.589v0.132
			c0,13.04-10.285,23.721-24.439,23.721S576.445,319.497,576.445,306.459z M614.643,306.459v-0.132
			c0-7.863-5.766-14.413-13.891-14.413c-8.123,0-13.758,6.421-13.758,14.281v0.132c0,7.863,5.764,14.413,13.891,14.413
			C609.008,320.74,614.643,314.319,614.643,306.459z"/>
		<path fill="#1E398D" d="M520.723,315.665c-3.471,3.104-6.643,5.075-11.727,5.075c-7.863,0-13.297-6.55-13.297-14.413v-0.132
			c0-7.86,5.566-14.281,13.297-14.281c4.586,0,8.191,1.965,11.727,5.173v-12.063c-3.102-1.52-6.842-2.417-11.662-2.417
			c-14.082,0-23.914,10.683-23.914,23.721v0.132c0,13.17,10.027,23.589,23.521,23.589c4.979,0,8.811-0.997,12.055-2.765V315.665z"/>
		<g>
			<path fill="#1E398D" d="M381.307,367.335l2.443-2.902c2.212,1.912,4.42,3,7.292,3c2.507,0,4.091-1.154,4.091-2.902v-0.065
				c0-1.65-0.923-2.542-5.213-3.532c-4.914-1.187-7.689-2.639-7.689-6.895v-0.067c0-3.96,3.302-6.698,7.888-6.698
				c3.366,0,6.04,1.023,8.382,2.904l-2.18,3.069c-2.078-1.552-4.156-2.376-6.268-2.376c-2.373,0-3.759,1.222-3.759,2.736v0.066
				c0,1.783,1.054,2.577,5.473,3.632c4.886,1.188,7.426,2.938,7.426,6.764v0.064c0,4.324-3.398,6.899-8.248,6.899
				C387.413,371.032,384.079,369.811,381.307,367.335z"/>
			<path fill="#1E398D" d="M414.441,361.593l-9.176-13.99h4.788l6.462,10.229l6.538-10.229h4.65l-9.17,13.892v9.208h-4.092V361.593z
				"/>
			<path fill="#1E398D" d="M433.16,367.335l2.439-2.902c2.215,1.912,4.424,3,7.291,3c2.512,0,4.092-1.154,4.092-2.902v-0.065
				c0-1.65-0.924-2.542-5.213-3.532c-4.914-1.187-7.686-2.639-7.686-6.895v-0.067c0-3.96,3.297-6.698,7.887-6.698
				c3.363,0,6.037,1.023,8.379,2.904l-2.176,3.069c-2.078-1.552-4.156-2.376-6.271-2.376c-2.373,0-3.76,1.222-3.76,2.736v0.066
				c0,1.783,1.059,2.577,5.479,3.632c4.881,1.188,7.42,2.938,7.42,6.764v0.064c0,4.324-3.395,6.899-8.248,6.899
				C439.266,371.032,435.932,369.811,433.16,367.335z"/>
			<path fill="#1E398D" d="M466.395,351.364h-7.324v-3.762h18.74v3.762h-7.324v19.338h-4.092V351.364z"/>
			<path fill="#1E398D" d="M487.059,347.603h17.129v3.628h-13.068v6.008h11.582v3.63h-11.582v6.204h13.23v3.63h-17.291V347.603z"/>
			<path fill="#1E398D" d="M513.436,347.603h4.322l7.029,10.924l7.027-10.924h4.322v23.1h-4.055v-16.565l-7.295,10.888h-0.135
				l-7.223-10.822v16.5h-3.994V347.603z"/>
			<path fill="#1E398D" d="M544.15,367.335l2.443-2.902c2.211,1.912,4.424,3,7.291,3c2.508,0,4.092-1.154,4.092-2.902v-0.065
				c0-1.65-0.924-2.542-5.213-3.532c-4.914-1.187-7.686-2.639-7.686-6.895v-0.067c0-3.96,3.297-6.698,7.883-6.698
				c3.367,0,6.037,1.023,8.383,2.904l-2.176,3.069c-2.082-1.552-4.16-2.376-6.271-2.376c-2.379,0-3.76,1.222-3.76,2.736v0.066
				c0,1.783,1.053,2.577,5.477,3.632c4.883,1.188,7.422,2.938,7.422,6.764v0.064c0,4.324-3.398,6.899-8.252,6.899
				C550.256,371.032,546.926,369.811,544.15,367.335z"/>
		</g>
	</g>
</g>
</svg>
